<svg xmlns="http://www.w3.org/2000/svg" height="49.66" width="101.78">
  <path d="M99.83 15.5l-20.97-.47H53.33c.03-.37-.01-2.2-.2-6.6-.2-4.98-2.24-7.02-2.24-7.02s-2.04 2.05-2.25 7.01c-.18 4.41-.22 6.24-.19 6.6H22.92l-20.97.48s-.95.14-.95.89v1.77l18.7 1.56 16.08.89s11.8.68 12.46.68c.48 0 .63.31.67.72l.02.44v.03l.8 20.37-6.4.9s-1.01.34-1.01 1.09v1.22l7.4.75.58-.85.4 1.18.19.35.18-.35.4-1.18.59.85 7.4-.75v-1.22c0-.75-1.02-1.1-1.02-1.1l-6.38-.9.79-20.36v-.03l.02-.44c.04-.41.19-.72.67-.72.65 0 12.46-.68 12.46-.68l16.08-.89 18.7-1.56v-1.77c0-.75-.95-.89-.95-.89zm-47.68-2.05s-.18.94-1.26.99c-1.08-.05-1.26-.99-1.26-.99s-.13-3.02.12-5.49c.16-1.6.34-2.65 1.14-2.72.8.07.98 1.12 1.14 2.72.25 2.47.12 5.49.12 5.49z" fill="#fff" stroke="#000" stroke-width="2"/>
</svg>
