<?xml version="1.0" encoding="UTF-8" standalone="no"?>
<svg
   xmlns:dc="http://purl.org/dc/elements/1.1/"
   xmlns:cc="http://creativecommons.org/ns#"
   xmlns:rdf="http://www.w3.org/1999/02/22-rdf-syntax-ns#"
   xmlns:svg="http://www.w3.org/2000/svg"
   xmlns="http://www.w3.org/2000/svg"
   id="svg8"
   xml:space="preserve"
   enable-background="new 0 0 100 100"
   viewBox="0 0 100 125"
   y="0px"
   x="0px"
   version="1.1"><metadata
     id="metadata14"><rdf:RDF><cc:Work
         rdf:about=""><dc:format>image/svg+xml</dc:format><dc:type
           rdf:resource="http://purl.org/dc/dcmitype/StillImage" /><dc:title></dc:title></cc:Work></rdf:RDF></metadata><defs
     id="defs12" /><path
     style="fill:#000000"
     id="path2"
     d="m 98.88,14.13561 -20.965,-0.476 H 52.382 c 0.033,-0.361 -0.012,-2.196 -0.193,-6.6019999 -0.204,-4.969 -2.246,-7.00999996 -2.246,-7.00999996 0,0 -2.042,2.04199996 -2.246,7.00999996 C 47.515,11.46361 47.469,13.29861 47.503,13.65961 H 21.968 l -20.963,0.476 c 0,0 -0.953,0.136 -0.953,0.885 0,0.749 0,1.77 0,1.77 l 18.701,1.565 16.079,0.885 c 0,0 11.807,0.681 12.456,0.681 0.487,0 0.633,0.313 0.676,0.726 l 0.018,0.436 v 0 c 0,0.011 0,0.022 10e-4,0.033 l 0.79,20.364 -6.386,0.902 c 0,0 -1.02,0.34 -1.02,1.088 0,0.749 0,1.228 0,1.228 l 7.407,0.749 0.583,-0.857 0.401,1.182 0.184,0.354 0.184,-0.354 0.4,-1.182 0.584,0.856 7.408,-0.749 c 0,0 0,-0.479 0,-1.228 0,-0.748 -1.023,-1.088 -1.023,-1.088 l -6.383,-0.902 0.79,-20.364 c 10e-4,-0.01 10e-4,-0.021 10e-4,-0.033 v 0 l 0.018,-0.436 c 0.042,-0.413 0.188,-0.726 0.675,-0.726 0.648,0 12.457,-0.681 12.457,-0.681 l 16.078,-0.885 18.7,-1.565 c 0,0 0,-1.021 0,-1.77 0,-0.747 -0.951,-0.884 -0.951,-0.884 z m -47.674,-2.052 c 0,0 -0.187,0.938 -1.264,0.988 -1.078,-0.05 -1.265,-0.988 -1.265,-0.988 0,0 -0.125,-3.0209999 0.124,-5.4859999 0.163,-1.602 0.342,-2.653 1.141,-2.726 0.799,0.073 0.977,1.124 1.141,2.726 0.249,2.465 0.123,5.4859999 0.123,5.4859999 z" /></svg>
