<?xml version="1.0" standalone="no"?>
<!DOCTYPE svg PUBLIC "-//W3C//DTD SVG 20010904//EN"
 "http://www.w3.org/TR/2001/REC-SVG-20010904/DTD/svg10.dtd">
<svg version="1.0" xmlns="http://www.w3.org/2000/svg"
 width="1239.000000pt" height="1239.000000pt" viewBox="0 0 1239.000000 1239.000000"
 preserveAspectRatio="xMidYMid meet">
<metadata>
Created by potrace 1.11, written by Peter Selinger 2001-2013
</metadata>
<g transform="translate(0.000000,1239.000000) scale(0.100000,-0.100000)"
fill="#000000" stroke="none">
<path d="M5980 12373 c-367 -11 -819 -70 -1185 -154 -115 -26 -346 -87 -353
-94 -2 -1 98 -349 113 -392 2 -8 28 -4 87 13 367 108 979 203 1313 204 50 0
120 3 158 7 l67 6 0 208 0 209 -57 -2 c-32 -1 -96 -3 -143 -5z"/>
<path d="M7872 11948 c-28 -95 -54 -184 -57 -198 -6 -25 -3 -27 147 -77 282
-94 552 -205 800 -329 121 -61 419 -230 486 -276 37 -25 46 -28 57 -17 19 21
215 329 215 339 0 30 -537 325 -821 451 -234 103 -715 279 -763 279 -8 0 -31
-60 -64 -172z"/>
<path d="M6506 11123 c-109 -296 -201 -543 -203 -550 -3 -7 13 -14 44 -18 26
-3 65 -8 85 -11 l37 -6 41 129 c22 70 42 133 44 139 5 13 281 -17 295 -32 5
-5 16 -70 25 -144 9 -74 18 -135 19 -136 4 -4 172 -22 175 -19 2 1 -34 263
-80 581 l-84 578 -25 7 c-14 3 -59 9 -100 13 l-74 7 -199 -538z m299 44 c16
-119 26 -219 24 -221 -2 -2 -51 1 -109 8 -83 9 -105 15 -104 27 1 8 34 115 75
237 60 181 75 217 80 195 4 -15 19 -126 34 -246z"/>
<path d="M5000 11557 c-158 -33 -205 -46 -203 -57 6 -41 195 -1105 197 -1107
6 -6 398 88 438 105 114 50 172 144 173 277 0 99 -24 173 -73 227 -39 43 -99
78 -133 78 -19 0 -17 5 18 43 48 52 67 103 67 177 -1 113 -55 224 -130 270
-60 37 -125 35 -354 -13z m235 -139 c40 -18 65 -76 65 -152 0 -87 -25 -118
-118 -146 -37 -11 -82 -21 -101 -22 l-34 -3 -28 150 c-15 83 -25 152 -23 154
8 8 122 29 166 30 26 1 59 -4 73 -11z m111 -467 c44 -27 74 -94 74 -167 0
-105 -46 -149 -185 -179 -44 -10 -84 -18 -89 -19 -5 0 -24 78 -41 174 l-31
175 65 17 c92 23 168 23 207 -1z"/>
<path d="M7337 10998 c-81 -293 -147 -538 -147 -545 0 -6 71 -35 158 -64 133
-44 169 -52 237 -53 71 -1 88 3 145 31 76 38 138 95 191 177 45 69 95 194 115
286 18 83 18 250 0 316 -30 115 -104 207 -212 266 -47 25 -304 118 -328 118
-6 0 -75 -230 -159 -532z m430 262 c76 -59 109 -152 99 -276 -6 -88 -44 -230
-77 -297 -59 -116 -147 -187 -233 -187 -51 0 -156 29 -156 44 0 6 48 185 107
397 l108 387 63 -24 c35 -13 75 -33 89 -44z"/>
<path d="M4320 11369 c-35 -17 -66 -31 -68 -33 -1 -2 56 -164 128 -359 134
-367 160 -449 160 -503 0 -47 -38 -95 -100 -127 -99 -51 -166 -21 -220 98 -15
33 -85 216 -155 407 l-127 347 -57 -26 c-31 -13 -66 -29 -78 -34 -13 -5 -23
-12 -23 -17 0 -11 241 -663 275 -742 39 -92 89 -163 138 -196 39 -27 49 -29
133 -29 84 0 95 2 168 39 93 46 149 99 183 173 23 49 25 65 20 132 -3 42 -17
114 -32 161 -42 133 -267 740 -274 739 -3 0 -35 -14 -71 -30z"/>
<path d="M2748 11330 c-284 -189 -553 -405 -813 -650 -149 -140 -414 -420
-415 -436 0 -10 238 -224 293 -263 17 -12 23 -8 70 45 259 297 675 665 1027
907 69 48 133 92 142 99 16 12 8 28 -92 183 -61 94 -114 171 -118 172 -4 1
-46 -25 -94 -57z"/>
<path d="M8275 10678 c-125 -271 -232 -500 -236 -508 -6 -12 47 -46 255 -163
144 -81 267 -147 273 -147 6 0 24 30 40 67 l31 68 -118 66 c-64 36 -149 84
-188 105 -40 22 -72 42 -72 45 0 15 141 304 148 302 4 -1 68 -36 142 -77 74
-42 138 -76 142 -76 3 0 20 30 37 67 24 51 29 68 19 75 -7 4 -70 40 -140 78
-70 39 -130 75 -133 80 -4 6 103 251 121 279 2 2 84 -42 183 -98 100 -55 184
-101 189 -101 8 0 76 130 70 134 -7 5 -530 296 -532 296 -1 0 -105 -222 -231
-492z"/>
<path d="M3162 10744 c-40 -25 -70 -49 -68 -52 2 -4 117 -223 256 -487 138
-264 255 -483 258 -487 4 -3 106 56 227 133 121 77 226 143 233 148 11 6 6 23
-23 80 l-36 72 -32 -19 c-18 -10 -89 -55 -159 -100 l-127 -81 -55 102 c-30 56
-129 244 -219 417 -91 173 -170 316 -174 317 -5 2 -41 -17 -81 -43z"/>
<path d="M8963 10241 c-161 -253 -294 -463 -295 -469 -4 -13 430 -345 441
-337 12 7 84 125 80 129 -2 2 -67 52 -144 110 -77 59 -141 111 -143 116 -2 5
107 183 242 394 136 212 248 391 251 398 3 10 -122 119 -137 118 -2 0 -134
-207 -295 -459z"/>
<path d="M2657 10335 c-104 -40 -202 -149 -232 -259 -44 -163 31 -371 210
-579 170 -197 353 -275 498 -210 107 49 208 183 222 296 10 78 -30 229 -78
291 -14 19 -17 18 -81 -28 l-66 -47 17 -37 c64 -145 65 -199 4 -265 -34 -36
-44 -41 -93 -45 -76 -6 -135 27 -236 132 -152 159 -253 346 -239 447 7 51 41
106 80 125 62 33 129 16 215 -54 23 -19 44 -33 45 -31 2 2 26 33 53 68 l49 63
-42 37 c-101 91 -237 130 -326 96z"/>
<path d="M10689 10102 l-156 -137 29 -35 c303 -356 552 -733 772 -1164 47 -93
88 -171 90 -174 3 -2 90 35 194 83 l190 87 -53 111 c-154 329 -386 711 -624
1027 -108 144 -270 340 -279 339 -4 0 -77 -62 -163 -137z"/>
<path d="M5930 10189 c-164 -10 -343 -33 -510 -65 -129 -26 -350 -80 -359 -89
-4 -4 96 -369 116 -421 2 -7 -32 -23 -84 -39 -214 -66 -527 -208 -724 -327
l-105 -64 -119 185 c-65 102 -120 188 -121 190 -9 11 -287 -193 -430 -315 -98
-83 -359 -338 -405 -396 l-29 -36 169 -147 170 -147 -52 -62 c-163 -191 -328
-445 -443 -678 -27 -54 -53 -98 -59 -98 -6 0 -99 40 -206 89 l-194 90 -17 -33
c-64 -123 -179 -457 -233 -674 -34 -137 -80 -380 -73 -387 1 -2 99 -17 217
-34 118 -17 216 -33 219 -36 2 -2 -1 -46 -7 -97 -28 -214 -25 -572 5 -849 l6
-55 -217 -31 c-119 -17 -219 -33 -222 -36 -16 -17 77 -433 142 -638 43 -135
149 -407 169 -434 13 -19 19 -17 137 37 68 31 159 73 202 92 l77 36 51 -103
c118 -236 241 -427 411 -640 60 -75 76 -102 68 -112 -6 -7 -80 -73 -165 -146
-85 -73 -155 -137 -155 -142 0 -5 87 -96 193 -202 195 -194 369 -341 559 -472
l105 -72 67 105 c37 57 91 142 121 189 l54 84 -97 68 c-110 77 -323 246 -365
290 l-28 30 50 6 c54 6 101 27 131 57 11 11 56 41 102 67 45 26 107 71 138 99
30 28 90 74 133 104 44 30 107 85 142 123 35 38 81 81 103 96 22 14 93 75 158
135 128 116 189 157 271 182 106 31 265 151 500 375 119 114 174 159 223 184
36 18 97 62 135 97 95 88 107 93 134 64 12 -12 52 -85 90 -162 38 -77 94 -177
126 -224 38 -57 64 -108 77 -155 11 -38 35 -99 54 -135 42 -81 209 -297 312
-404 82 -85 219 -282 315 -451 42 -75 64 -103 87 -113 16 -8 90 -82 164 -165
200 -227 213 -239 321 -309 91 -59 134 -94 124 -101 -8 -6 -234 -97 -241 -97
-4 0 -55 37 -114 81 -58 45 -148 107 -199 139 -96 58 -138 99 -255 245 -81
102 -260 279 -404 400 -123 103 -161 145 -201 225 -15 30 -54 82 -86 115 -90
91 -196 224 -222 277 -16 33 -30 49 -48 53 -15 3 -35 15 -45 26 -9 10 -24 19
-32 19 -25 0 -138 -97 -234 -202 -112 -122 -180 -178 -216 -178 -69 -1 -168
-76 -368 -280 -72 -74 -169 -179 -214 -233 -56 -67 -102 -110 -144 -137 -35
-22 -92 -73 -127 -112 -35 -40 -83 -92 -107 -114 -28 -26 -40 -44 -33 -49 15
-9 59 30 146 129 39 43 102 101 142 127 46 32 93 75 130 122 71 89 329 358
392 409 97 79 126 99 150 104 100 23 98 21 274 198 95 95 183 177 195 181 17
5 30 1 46 -14 12 -12 27 -21 33 -21 6 0 25 -24 41 -52 17 -29 56 -81 86 -116
31 -35 61 -73 67 -85 7 -11 35 -42 64 -69 29 -26 66 -75 85 -110 50 -93 82
-129 225 -249 155 -130 302 -277 412 -414 106 -131 139 -162 257 -235 79 -49
187 -128 260 -191 4 -4 -34 -21 -85 -37 -77 -25 -93 -34 -91 -49 8 -40 115
-399 121 -406 9 -9 261 76 405 138 194 83 483 235 615 324 13 8 -29 80 -221
374 -4 6 -54 -18 -125 -60 -65 -39 -160 -92 -212 -117 -92 -47 -93 -47 -108
-27 -8 12 -64 54 -126 95 -114 75 -132 93 -377 372 -34 39 -79 82 -99 95 -26
16 -51 48 -82 103 -24 44 -80 134 -124 200 -44 67 -81 124 -83 129 -2 4 16 29
40 56 24 26 64 91 89 142 57 115 120 199 152 199 60 -1 128 -47 308 -210 82
-74 151 -126 234 -175 102 -60 131 -84 214 -173 53 -57 110 -123 126 -147 18
-26 48 -52 75 -65 56 -27 166 -105 178 -126 5 -8 44 -32 88 -54 l79 -38 37 27
c54 40 289 253 334 303 92 104 144 159 142 150 -3 -11 315 -292 329 -292 12 0
170 199 258 325 42 61 114 173 160 250 86 145 203 371 195 378 -7 5 -382 174
-397 179 -7 2 5 41 34 108 92 215 181 517 219 745 10 61 19 111 20 113 1 2
100 -11 219 -28 166 -24 220 -29 225 -19 35 55 47 773 18 1002 -9 65 -17 119
-19 122 -3 2 -94 -9 -204 -25 -110 -16 -209 -30 -220 -30 -19 0 -23 12 -39
108 -39 226 -118 497 -210 721 l-53 128 203 93 c112 51 204 95 204 97 0 15
-143 283 -209 391 -119 197 -221 339 -388 541 l-20 25 -169 -147 -169 -147
-101 107 c-163 174 -384 363 -571 491 -46 30 -83 59 -83 63 0 4 50 85 111 179
60 94 113 178 115 185 13 32 -370 242 -641 353 -152 62 -374 136 -383 128 -3
-4 -33 -100 -67 -214 -45 -152 -65 -206 -75 -204 -8 2 -66 16 -130 32 -234 58
-419 85 -681 100 -96 5 -175 10 -176 10 -2 0 -3 101 -3 225 l0 225 -57 -1
c-32 -1 -119 -6 -193 -10z m2391 -1558 c249 -127 679 -415 679 -453 0 -23
-101 -1 -312 68 -248 80 -412 124 -466 124 -62 0 -259 -112 -507 -287 -77 -55
-210 -149 -296 -210 -324 -229 -623 -409 -924 -554 -257 -124 -416 -169 -596
-169 l-102 0 6 56 c3 31 17 80 31 109 31 62 123 157 199 205 61 38 66 45 40
53 -10 3 -211 98 -447 212 -671 323 -1029 475 -1121 478 -63 2 -142 -29 -395
-153 -231 -115 -335 -158 -347 -146 -8 8 -28 -10 237 217 238 203 396 326 463
361 31 15 52 19 87 15 96 -11 338 -98 889 -319 561 -224 788 -306 1031 -374
l124 -34 196 98 c107 54 366 197 575 319 209 121 434 250 500 288 130 74 300
154 326 155 9 0 68 -26 130 -59z m-705 -1386 c121 -36 280 -102 465 -195 166
-83 349 -189 387 -224 l24 -21 -24 -5 c-40 -10 -135 7 -428 75 -321 74 -414
93 -515 104 l-70 8 -100 -50 c-140 -69 -324 -183 -495 -304 -437 -309 -598
-415 -808 -533 -137 -77 -523 -263 -627 -303 -141 -53 -309 -87 -436 -87 l-62
0 5 63 c3 35 13 78 22 96 24 45 89 109 165 160 35 24 59 46 54 51 -4 4 -28 14
-53 23 -25 9 -169 59 -320 111 -303 106 -772 254 -1003 317 -111 31 -157 39
-185 34 -61 -11 -185 -70 -423 -201 -245 -134 -333 -177 -357 -172 -19 4 258
260 439 405 160 129 326 243 354 243 56 0 336 -69 785 -195 625 -174 819 -222
1089 -270 l134 -24 100 45 c153 69 282 135 802 412 482 256 777 406 870 442
67 26 107 25 211 -5z m844 -1131 c160 -65 605 -302 658 -351 l27 -24 -45 7
c-25 3 -148 30 -275 59 -126 30 -269 59 -317 66 l-86 12 -69 -38 c-75 -41
-189 -123 -423 -305 -270 -211 -482 -346 -750 -480 -166 -83 -266 -110 -414
-110 l-89 0 6 35 c8 48 67 143 134 216 31 33 54 61 52 63 -2 2 -89 41 -194 86
-219 95 -409 169 -512 199 l-72 22 -78 -20 c-43 -11 -177 -54 -297 -96 -121
-41 -229 -75 -240 -75 -19 0 -19 0 0 21 84 94 380 282 597 380 81 36 95 40
141 34 85 -12 204 -50 428 -139 224 -88 376 -137 493 -156 l70 -12 85 39 c47
22 231 122 410 223 238 135 674 366 696 370 0 0 29 -12 64 -26z"/>
<path d="M9531 9764 l-353 -416 73 -77 c175 -181 364 -371 370 -371 4 0 28 25
54 56 l48 56 -158 158 c-147 147 -158 160 -144 177 9 10 57 67 109 126 l93
109 122 -122 122 -121 47 56 48 55 -60 68 c-33 37 -86 92 -116 122 -31 30 -56
58 -56 63 0 10 178 220 190 225 4 1 74 -68 156 -154 l149 -157 47 54 c27 29
48 57 48 63 0 5 -98 108 -217 228 l-218 218 -354 -416z"/>
<path d="M1587 8926 c-135 -37 -241 -183 -254 -352 -12 -147 71 -290 241 -418
223 -168 432 -229 573 -167 96 43 189 172 212 295 19 105 -19 233 -98 328
-142 170 -429 330 -591 327 -19 0 -57 -6 -83 -13z m204 -217 c143 -61 326
-198 384 -289 48 -76 40 -165 -22 -226 -40 -40 -87 -51 -157 -35 -151 34 -402
203 -478 320 -54 86 -27 213 54 255 46 24 126 14 219 -25z"/>
<path d="M539 8713 c-187 -417 -349 -936 -434 -1396 -33 -183 -40 -247 -27
-247 5 0 87 -11 182 -25 95 -14 182 -25 194 -25 20 0 23 11 50 163 79 453 240
983 410 1347 14 30 22 58 18 62 -8 7 -357 168 -366 168 -3 0 -15 -21 -27 -47z"/>
<path d="M10740 8664 c-51 -10 -157 -48 -215 -77 -214 -106 -350 -244 -391
-394 -46 -172 60 -395 215 -454 125 -47 329 0 516 119 129 83 233 191 272 282
55 131 21 315 -80 427 -59 64 -128 96 -217 99 -41 1 -86 0 -100 -2z m203 -209
c58 -43 82 -139 53 -210 -56 -133 -395 -335 -563 -335 -108 0 -184 126 -143
235 35 91 246 241 440 312 80 29 171 28 213 -2z"/>
<path d="M1179 7916 c-66 -23 -107 -64 -152 -151 -25 -48 -142 -423 -135 -430
2 -3 224 -83 493 -178 328 -117 492 -171 496 -163 4 6 17 46 29 89 16 55 20
81 13 85 -6 4 -99 38 -206 76 l-194 69 14 46 c7 25 18 62 23 82 l10 37 213 7
c116 4 221 11 232 15 15 6 27 31 48 101 14 51 25 94 24 95 -3 3 -367 -30 -458
-41 l-47 -5 -7 37 c-7 41 -35 97 -62 128 -79 90 -234 137 -334 101z m157 -200
c97 -45 121 -117 85 -251 -12 -43 -25 -84 -29 -90 -5 -9 -46 1 -155 40 -81 29
-151 55 -154 59 -3 3 8 50 25 104 50 157 110 193 228 138z"/>
<path d="M10893 7492 c-271 -65 -494 -119 -497 -122 -4 -4 10 -85 29 -166 5
-21 7 -21 211 28 114 26 209 46 212 44 5 -6 31 -125 32 -148 0 -10 -71 -66
-190 -148 -115 -80 -190 -139 -190 -149 0 -18 31 -184 36 -189 2 -3 273 200
401 301 9 7 24 -1 52 -26 68 -61 96 -72 191 -72 71 0 94 4 140 26 67 32 116
80 144 139 33 70 27 211 -16 425 -25 119 -39 170 -49 172 -8 0 -235 -51 -506
-115z m422 -124 c20 -92 25 -120 25 -173 0 -102 -47 -152 -154 -161 -102 -10
-151 43 -181 193 -9 47 -15 86 -13 87 3 2 296 73 310 75 4 1 10 -9 13 -21z"/>
<path d="M12080 7050 c-102 -16 -188 -29 -191 -29 -3 -1 0 -47 8 -103 56 -433
58 -914 6 -1381 -8 -81 -13 -150 -9 -154 10 -11 399 -64 407 -56 8 9 35 233
50 428 15 183 15 701 0 885 -13 160 -39 395 -47 423 -6 21 4 21 -224 -13z"/>
<path d="M829 6938 c-6 -15 -54 -644 -50 -649 9 -10 1020 -103 1028 -95 7 7
51 520 52 607 l1 47 -66 7 c-36 4 -68 4 -71 2 -3 -3 -13 -108 -23 -232 -11
-125 -20 -228 -22 -229 -2 -1 -72 5 -157 13 l-154 14 6 91 c4 50 9 132 13 182
l7 91 -68 6 c-38 4 -70 5 -72 3 -2 -2 -10 -81 -18 -176 -8 -95 -17 -175 -19
-177 -5 -6 -270 19 -277 26 -3 3 2 107 12 230 10 124 18 226 16 227 -4 3 -137
16 -138 12z"/>
<path d="M10712 6495 c-112 -57 -170 -140 -192 -279 -35 -220 64 -407 240
-452 101 -26 191 -1 263 72 46 46 62 76 127 235 63 156 89 195 138 210 33 10
45 9 77 -7 58 -27 77 -65 73 -151 -4 -86 -22 -115 -94 -155 -27 -15 -52 -29
-56 -30 -4 -2 4 -40 18 -85 l25 -82 49 18 c146 56 217 180 208 365 -5 107 -26
163 -88 230 -109 118 -279 123 -393 12 -44 -44 -64 -81 -129 -241 -26 -66 -56
-131 -66 -145 -43 -59 -130 -75 -185 -34 -47 35 -62 73 -62 154 0 64 4 82 27
122 29 48 72 81 121 94 16 3 31 13 34 20 3 7 -3 47 -13 89 -13 57 -22 75 -34
75 -10 0 -49 -16 -88 -35z"/>
<path d="M1313 5826 c-265 -118 -485 -216 -490 -219 -10 -6 8 -202 20 -213 3
-4 233 -46 509 -95 277 -48 516 -90 531 -93 27 -5 28 -4 23 22 -2 15 -8 57
-11 93 l-6 66 -132 17 c-72 9 -132 18 -133 19 -3 3 -34 285 -34 306 0 14 29
30 123 70 l122 52 -9 94 c-5 57 -14 95 -20 95 -6 0 -228 -97 -493 -214z m150
-262 c8 -65 14 -120 13 -121 0 -1 -98 12 -216 28 -118 15 -224 29 -235 29 -11
0 79 42 200 94 121 51 221 92 222 91 2 0 9 -55 16 -121z"/>
<path d="M10486 5563 c-10 -36 -29 -163 -25 -167 8 -7 1010 -218 1015 -214 7
7 37 178 32 183 -5 6 -983 215 -1003 215 -7 0 -16 -8 -19 -17z"/>
<path d="M263 5351 c-101 -15 -186 -30 -189 -34 -14 -13 40 -316 100 -569 79
-335 220 -751 360 -1060 l26 -58 52 24 c29 12 115 51 190 86 l137 62 -16 37
c-151 340 -262 667 -349 1030 -36 149 -94 448 -94 489 0 27 14 27 -217 -7z"/>
<path d="M11350 3658 c-213 -430 -435 -768 -788 -1199 l-23 -28 147 -128 c81
-70 154 -132 162 -137 18 -10 19 -9 166 174 191 236 395 537 553 815 80 142
247 474 241 480 -5 5 -375 175 -380 175 -2 0 -37 -69 -78 -152z"/>
<path d="M5112 2578 c-34 -117 -58 -216 -54 -220 11 -11 268 -74 396 -98 157
-28 313 -48 441 -55 61 -3 149 -8 198 -11 l87 -6 0 225 0 225 -31 6 c-17 3
-71 6 -119 6 -203 0 -626 68 -840 135 -12 4 -28 -38 -78 -207z"/>
<path d="M1670 2296 c-85 -74 -156 -138 -157 -143 -5 -15 280 -315 442 -466
252 -234 490 -424 740 -593 66 -44 125 -84 132 -87 7 -5 50 54 117 157 58 91
109 171 112 179 3 9 -8 23 -33 38 -64 39 -272 188 -393 283 -240 187 -570 497
-751 703 l-54 63 -155 -134z"/>
<path d="M4116 1708 c-32 -310 -60 -571 -63 -581 -3 -14 13 -25 82 -57 48 -22
91 -38 95 -35 12 8 623 942 622 951 0 5 -31 22 -69 37 -64 26 -68 27 -81 10
-7 -10 -113 -178 -235 -375 -122 -196 -223 -355 -224 -354 -1 1 22 202 52 446
30 245 55 448 55 451 0 6 -150 69 -165 69 -7 0 -33 -217 -69 -562z"/>
<path d="M7890 2157 c-151 -60 -276 -111 -277 -112 -2 -1 335 -1019 351 -1061
3 -9 82 18 268 93 145 58 273 109 285 114 l22 8 -25 75 -26 75 -46 -18 c-26
-11 -116 -47 -201 -80 -84 -34 -155 -61 -156 -59 -8 10 -106 320 -102 324 2 2
69 31 148 62 88 36 145 64 147 74 2 8 -7 42 -20 76 l-23 60 -145 -58 c-80 -33
-150 -59 -155 -60 -10 0 -111 288 -103 294 1 2 86 36 188 76 102 40 189 76
193 80 9 8 -32 151 -42 149 -4 0 -130 -51 -281 -112z"/>
<path d="M4776 1460 c-142 -280 -258 -513 -258 -517 1 -12 152 -47 161 -37 5
5 32 62 61 127 36 79 58 117 69 117 9 0 75 -15 146 -33 l130 -33 3 -147 3
-146 37 -10 c92 -24 133 -33 136 -30 2 2 -4 256 -15 564 -10 308 -18 572 -19
586 0 25 -6 28 -85 48 -46 11 -90 21 -97 21 -7 0 -129 -229 -272 -510z m300
-208 c-6 -6 -188 38 -199 48 -7 6 65 173 177 410 l21 45 3 -249 c1 -137 0
-251 -2 -254z"/>
<path d="M7182 1955 c-72 -20 -106 -39 -152 -85 -50 -50 -77 -103 -89 -176
-17 -109 12 -211 82 -282 64 -66 96 -80 295 -122 156 -33 193 -62 200 -160 6
-93 -39 -149 -139 -171 -81 -18 -156 22 -207 111 l-27 48 -70 -41 c-39 -22
-71 -41 -73 -43 -7 -5 38 -83 76 -130 82 -104 216 -139 360 -95 128 39 213
120 246 235 20 67 20 113 1 194 -36 151 -112 208 -342 257 -145 30 -184 45
-213 82 -18 24 -21 38 -18 90 6 92 53 133 154 133 42 0 51 -5 88 -42 23 -24
49 -54 57 -67 l15 -24 65 43 c35 24 66 44 68 46 5 4 -45 87 -73 121 -63 75
-195 109 -304 78z"/>
<path d="M5530 1867 c0 -6 -20 -262 -45 -567 -29 -372 -41 -557 -34 -561 10
-6 161 -20 166 -16 1 2 10 106 20 232 l18 230 75 -3 c41 -1 77 -6 80 -11 3 -5
32 -115 64 -245 l59 -235 66 -6 c36 -3 78 -9 94 -11 18 -4 27 -1 27 8 0 7 -34
128 -75 268 -41 140 -73 255 -72 255 125 72 166 140 174 291 7 124 -12 188
-75 253 -66 68 -122 86 -323 105 -90 9 -176 18 -191 21 -18 3 -28 0 -28 -8z
m318 -178 c66 -13 108 -48 123 -102 22 -81 -12 -198 -68 -234 -22 -15 -46 -18
-126 -16 -55 1 -102 4 -104 7 -4 4 14 277 23 332 4 31 5 31 52 27 26 -2 71 -9
100 -14z"/>
<path d="M6512 1847 l-254 -20 6 -56 c3 -31 20 -285 37 -566 17 -280 33 -512
36 -514 4 -5 596 38 601 44 2 2 1 38 -3 79 -9 90 21 82 -244 61 -102 -8 -186
-14 -187 -12 -3 3 -25 340 -22 342 2 2 75 8 163 15 88 7 162 14 164 16 2 2 0
38 -4 80 l-7 77 -61 -6 c-34 -4 -108 -9 -163 -13 l-102 -7 -6 69 c-20 240 -20
243 6 248 12 3 107 11 211 17 l187 12 0 26 c0 14 -3 50 -6 79 l-7 52 -46 -1
c-25 -1 -160 -11 -299 -22z"/>
<path d="M9230 1311 c-359 -228 -771 -423 -1220 -576 -101 -35 -186 -68 -188
-73 -3 -11 104 -381 113 -390 8 -9 325 98 515 173 216 86 473 204 650 299 161
87 430 248 430 258 0 5 -210 339 -224 355 -1 1 -35 -20 -76 -46z"/>
<path d="M4546 653 c-73 -246 -106 -363 -106 -375 0 -27 413 -129 737 -182
296 -49 570 -75 833 -79 l165 -2 3 206 2 206 -46 7 c-26 3 -95 6 -153 6 -377
1 -1033 105 -1409 224 -15 5 -22 2 -26 -11z"/>
</g>
</svg>
